<svg width="18" height="17" viewBox="0 0 18 17" fill="none" xmlns="http://www.w3.org/2000/svg">
<path d="M16.2222 2.27778H13.4045L11.7778 0.5H6.44445L4.81778 2.27778H2.00001C1.52851 2.27778 1.07633 2.46508 0.742928 2.79848C0.40953 3.13187 0.222229 3.58406 0.222229 4.05556V14.7222C0.222229 15.1937 0.40953 15.6459 0.742928 15.9793C1.07633 16.3127 1.52851 16.5 2.00001 16.5H16.2222C16.6937 16.5 17.1459 16.3127 17.4793 15.9793C17.8127 15.6459 18 15.1937 18 14.7222V4.05556C18 3.58406 17.8127 3.13187 17.4793 2.79848C17.1459 2.46508 16.6937 2.27778 16.2222 2.27778ZM16.2222 14.7222H2.00001V4.05556H5.60001L7.22667 2.27778H10.9956L12.6222 4.05556H16.2222V14.7222ZM9.11112 4.94444C7.93238 4.94444 6.80192 5.4127 5.96842 6.24619C5.13493 7.07969 4.66667 8.21015 4.66667 9.38889C4.66667 10.5676 5.13493 11.6981 5.96842 12.5316C6.80192 13.3651 7.93238 13.8333 9.11112 13.8333C10.2899 13.8333 11.4203 13.3651 12.2538 12.5316C13.0873 11.6981 13.5556 10.5676 13.5556 9.38889C13.5556 8.21015 13.0873 7.07969 12.2538 6.24619C11.4203 5.4127 10.2899 4.94444 9.11112 4.94444ZM9.11112 12.0556C8.40387 12.0556 7.7256 11.7746 7.2255 11.2745C6.7254 10.7744 6.44445 10.0961 6.44445 9.38889C6.44445 8.68164 6.7254 8.00337 7.2255 7.50327C7.7256 7.00317 8.40387 6.72222 9.11112 6.72222C9.81836 6.72222 10.4966 7.00317 10.9967 7.50327C11.4968 8.00337 11.7778 8.68164 11.7778 9.38889C11.7778 10.0961 11.4968 10.7744 10.9967 11.2745C10.4966 11.7746 9.81836 12.0556 9.11112 12.0556Z" fill="white"/>
</svg>
