<svg width="16" height="17" viewBox="0 0 16 17" fill="none" xmlns="http://www.w3.org/2000/svg">
<path id="Vector" d="M5.33333 8.1C5.58347 8.1 5.83116 8.04827 6.06225 7.94776C6.29335 7.84725 6.50333 7.69993 6.6802 7.51421C6.85708 7.3285 6.99738 7.10802 7.0931 6.86537C7.18883 6.62272 7.2381 6.36264 7.2381 6.1C7.2381 5.83736 7.18883 5.57728 7.0931 5.33463C6.99738 5.09198 6.85708 4.8715 6.6802 4.68579C6.50333 4.50007 6.29335 4.35275 6.06225 4.25224C5.83116 4.15173 5.58347 4.1 5.33333 4.1C4.82816 4.1 4.34368 4.31071 3.98646 4.68579C3.62925 5.06086 3.42857 5.56957 3.42857 6.1C3.42857 6.36264 3.47784 6.62272 3.57356 6.86537C3.66929 7.10802 3.80959 7.3285 3.98646 7.51421C4.34368 7.88929 4.82816 8.1 5.33333 8.1ZM5.33333 0.5C8.27429 0.5 10.6667 3.004 10.6667 6.1C10.6667 10.3 5.33333 16.5 5.33333 16.5C5.33333 16.5 0 10.3 0 6.1C0 4.61479 0.561903 3.19041 1.5621 2.1402C2.56229 1.09 3.91885 0.5 5.33333 0.5ZM9.90476 12.5H12.1905V10.1H13.7143V12.5H16V14.1H13.7143V16.5H12.1905V14.1H9.90476V12.5Z" fill="#91C483"/>
</svg>
