<svg width="15" height="21" viewBox="0 0 15 21" fill="none" xmlns="http://www.w3.org/2000/svg">
<rect width="15" height="21" fill="#1E1E1E"/>
<g id="Home" clip-path="url(#clip0_709_543)">
<rect width="390" height="844" transform="translate(-39 -140)" fill="#FAFAFA"/>
<g id="Scroll" clip-path="url(#clip1_709_543)">
<g id="Collection points">
<g id="Rectangle 5" filter="url(#filter0_dd_709_543)">
<rect x="-20" y="-17" width="350" height="55" rx="10" fill="#D6E8D1"/>
</g>
<g id="Content">
<g id="Bg icon">
<rect x="-10" y="-7" width="35" height="35" rx="4" fill="#91C483"/>
<path id="map-marker-check-outline" d="M7.5 2.5C10.3 2.5 12.5 4.7 12.5 7.5C12.5 10.4 9.6 14.7 7.5 17.4C5.4 14.7 2.5 10.4 2.5 7.5C2.5 4.7 4.7 2.5 7.5 2.5ZM7.5 0.5C3.6 0.5 0.5 3.6 0.5 7.5C0.5 12.7 7.5 20.5 7.5 20.5C7.5 20.5 14.5 12.7 14.5 7.5C14.5 3.6 11.4 0.5 7.5 0.5ZM6.8 12.5L11.7 7.5L10.3 6.1L6.8 9.7L5.2 8.1L3.8 9.5L6.8 12.5Z" fill="white"/>
</g>
</g>
</g>
</g>
</g>
<defs>
<filter id="filter0_dd_709_543" x="-44" y="-25" width="398" height="103" filterUnits="userSpaceOnUse" color-interpolation-filters="sRGB">
<feFlood flood-opacity="0" result="BackgroundImageFix"/>
<feColorMatrix in="SourceAlpha" type="matrix" values="0 0 0 0 0 0 0 0 0 0 0 0 0 0 0 0 0 0 127 0" result="hardAlpha"/>
<feMorphology radius="4" operator="erode" in="SourceAlpha" result="effect1_dropShadow_709_543"/>
<feOffset dy="4"/>
<feGaussianBlur stdDeviation="4"/>
<feComposite in2="hardAlpha" operator="out"/>
<feColorMatrix type="matrix" values="0 0 0 0 0.0862745 0 0 0 0 0.133333 0 0 0 0 0.2 0 0 0 0.08 0"/>
<feBlend mode="normal" in2="BackgroundImageFix" result="effect1_dropShadow_709_543"/>
<feColorMatrix in="SourceAlpha" type="matrix" values="0 0 0 0 0 0 0 0 0 0 0 0 0 0 0 0 0 0 127 0" result="hardAlpha"/>
<feOffset dy="16"/>
<feGaussianBlur stdDeviation="12"/>
<feComposite in2="hardAlpha" operator="out"/>
<feColorMatrix type="matrix" values="0 0 0 0 0.0862745 0 0 0 0 0.133333 0 0 0 0 0.2 0 0 0 0.08 0"/>
<feBlend mode="normal" in2="effect1_dropShadow_709_543" result="effect2_dropShadow_709_543"/>
<feBlend mode="normal" in="SourceGraphic" in2="effect2_dropShadow_709_543" result="shape"/>
</filter>
<clipPath id="clip0_709_543">
<rect width="390" height="844" fill="white" transform="translate(-39 -140)"/>
</clipPath>
<clipPath id="clip1_709_543">
<rect width="390" height="672" fill="white" transform="translate(-39 -26)"/>
</clipPath>
</defs>
</svg>
