<svg width="18" height="18" viewBox="0 0 18 18" fill="none" xmlns="http://www.w3.org/2000/svg">
<rect width="18" height="18" rx="9" fill="#91C483"/>
<path d="M12.1111 12.1111H5.88889V5.88889H12.1111M12.1111 5H5.88889C5.65314 5 5.42705 5.09365 5.26035 5.26035C5.09365 5.42705 5 5.65314 5 5.88889V12.1111C5 12.3469 5.09365 12.573 5.26035 12.7397C5.42705 12.9063 5.65314 13 5.88889 13H12.1111C12.3469 13 12.573 12.9063 12.7397 12.7397C12.9063 12.573 13 12.3469 13 12.1111V5.88889C13 5.65314 12.9063 5.42705 12.7397 5.26035C12.573 5.09365 12.3469 5 12.1111 5ZM9.87111 9.12889L8.64889 10.7022L7.77778 9.65333L6.55556 11.2222H11.4444L9.87111 9.12889Z" fill="#F6F6F6"/>
</svg>
